name Walk5.mot
datacolumns 19
datarows 17
range 2.21000000 2.22600000
endheader

                time	   L_ground_force_vx	   L_ground_force_vy	   L_ground_force_vz	   L_ground_force_px	   L_ground_force_py	   L_ground_force_pz	   R_ground_force_vx	   R_ground_force_vy	   R_ground_force_vz	   R_ground_force_px	   R_ground_force_py	   R_ground_force_pz	   L_ground_torque_x	   L_ground_torque_y	   L_ground_torque_z	   R_ground_torque_x	   R_ground_torque_y	   R_ground_torque_z	
          2.21000000	          4.50484068	         39.74841457	         -5.39203257	          0.00149937	          0.00000000	          0.00033962	         -0.00000000	          0.00000000	          0.00000000	          0.00000000	          0.00000000	          0.00000000	          0.00000000	         -0.08222346	          0.00000000	          0.00000000	         -0.00000000	          0.00000000	
          2.21100000	          4.17129069	         44.79975474	         -5.95702675	         -0.01997811	          0.00000000	         -0.00344433	         -0.00000000	          0.00000000	          0.00000000	          0.00000000	          0.00000000	          0.00000000	          0.00000000	         -0.08578421	          0.00000000	          0.00000000	         -0.00000000	          0.00000000	
          2.21200000	          3.84313730	         50.00792301	         -6.52844591	         -0.04137633	          0.00000000	         -0.00721747	         -0.00000000	          0.00000000	          0.00000000	          0.00000000	          0.00000000	          0.00000000	          0.00000000	         -0.08955440	          0.00000000	          0.00000000	         -0.00000000	          0.00000000	
          2.21300000	          3.52132812	         55.36821835	         -7.10489042	         -0.06262663	          0.00000000	         -0.01096794	         -0.00000000	          0.00000000	          0.00000000	          0.00000000	          0.00000000	          0.00000000	          0.00000000	         -0.09353442	          0.00000000	          0.00000000	         -0.00000000	          0.00000000	
          2.21400000	          3.20672559	         60.87520644	         -7.68486894	         -0.08366208	          0.00000000	         -0.01468420	         -0.00000000	          0.00000000	          0.00000000	          0.00000000	          0.00000000	          0.00000000	          0.00000000	         -0.09772308	          0.00000000	          0.00000000	         -0.00000000	          0.00000000	
          2.21500000	          2.90007098	         66.52271968	         -8.26680612	         -0.10442009	          0.00000000	         -0.01835546	         -0.00000000	          0.00000000	          0.00000000	          0.00000000	          0.00000000	          0.00000000	          0.00000000	         -0.10211730	          0.00000000	          0.00000000	         -0.00000000	          0.00000000	
          2.21600000	          2.60193949	         72.30388306	         -8.84905348	         -0.12484392	          0.00000000	         -0.02197195	         -0.00000000	          0.00000000	          0.00000000	          0.00000000	          0.00000000	          0.00000000	          0.00000000	         -0.10671176	          0.00000000	          0.00000000	         -0.00000000	          0.00000000	
          2.21700000	          2.31269690	         78.21115297	         -9.42989952	         -0.14488294	          0.00000000	         -0.02552495	         -0.00000000	          0.00000000	          0.00000000	          0.00000000	          0.00000000	          0.00000000	          0.00000000	         -0.11149871	          0.00000000	          0.00000000	         -0.00000000	          0.00000000	
          2.21800000	          2.03245929	         84.23637063	        -10.00757875	         -0.16449226	          0.00000000	         -0.02900677	         -0.00000000	          0.00000000	          0.00000000	          0.00000000	          0.00000000	          0.00000000	          0.00000000	         -0.11646791	          0.00000000	          0.00000000	         -0.00000000	          0.00000000	
          2.21900000	          1.76105688	         90.37083250	        -10.58027988	         -0.18363240	          0.00000000	         -0.03241065	         -0.00000000	          0.00000000	          0.00000000	          0.00000000	          0.00000000	          0.00000000	          0.00000000	         -0.12160678	          0.00000000	          0.00000000	         -0.00000000	          0.00000000	
          2.22000000	          1.49800363	         96.60537733	        -11.14615344	         -0.20226902	          0.00000000	         -0.03573077	         -0.00000000	          0.00000000	          0.00000000	          0.00000000	          0.00000000	          0.00000000	          0.00000000	         -0.12690072	          0.00000000	          0.00000000	         -0.00000000	          0.00000000	
          2.22100000	          1.24247356	        102.93048833	        -11.70331946	         -0.22037257	          0.00000000	         -0.03896216	         -0.00000000	          0.00000000	          0.00000000	          0.00000000	          0.00000000	          0.00000000	          0.00000000	         -0.13233348	          0.00000000	          0.00000000	         -0.00000000	          0.00000000	
          2.22200000	          0.99328503	        109.33640658	        -12.24987519	         -0.23791794	          0.00000000	         -0.04210066	         -0.00000000	          0.00000000	          0.00000000	          0.00000000	          0.00000000	          0.00000000	          0.00000000	         -0.13788760	          0.00000000	          0.00000000	         -0.00000000	          0.00000000	
          2.22300000	          0.74889477	        115.81324920	        -12.78390268	         -0.25488421	          0.00000000	         -0.04514289	         -0.00000000	          0.00000000	          0.00000000	          0.00000000	          0.00000000	          0.00000000	          0.00000000	         -0.14354471	          0.00000000	          0.00000000	         -0.00000000	          0.00000000	
          2.22400000	          0.50740302	        122.35112485	        -13.30347548	         -0.27125433	          0.00000000	         -0.04808616	         -0.00000000	          0.00000000	          0.00000000	          0.00000000	          0.00000000	          0.00000000	          0.00000000	         -0.14928571	          0.00000000	          0.00000000	         -0.00000000	          0.00000000	
          2.22500000	          0.26657045	        128.94023973	        -13.80666430	         -0.28701483	          0.00000000	         -0.05092842	         -0.00000000	          0.00000000	          0.00000000	          0.00000000	          0.00000000	          0.00000000	          0.00000000	         -0.15509077	          0.00000000	          0.00000000	         -0.00000000	          0.00000000	
          2.22600000	          0.02384615	        135.57098943	        -14.29154154	         -0.30215559	          0.00000000	         -0.05366821	         -0.00000000	          0.00000000	          0.00000000	          0.00000000	          0.00000000	          0.00000000	          0.00000000	         -0.16093924	          0.00000000	          0.00000000	         -0.00000000	          0.00000000	
